# xmcd
#
# Track frame offsets: 
#        185
#        18995
#        35075
#        50605
#        72030
#        89382
#        106030
#        122670
#        145212
#        165355
#        185657
#        204782
#
# Disc length: 3024 seconds
#
# Revision: 7
# Processed by: cddbd v1.5.2PL0 Copyright (c) Steve Scherf et al.
# Submitted via: ExactAudioCopy v1.0b1
#
DISCID=9a0bce0c
DTITLE=Lee Eun Mi - Nostalgia
DYEAR=2001
DGENRE=Blues
TTITLE0=이별노래
TTITLE1=사랑은 유리 같은 것
TTITLE2=가시나무
TTITLE3=너를 사랑하고도
TTITLE4=찔레꽃
TTITLE5=보고 싶은 얼굴
TTITLE6=안녕 내 사랑
TTITLE7=사랑 그 쓸쓸함에 대하여
TTITLE8=이별의 그늘
TTITLE9=서른 즈음에
TTITLE10=그대 내게 다시
TTITLE11=안녕 또 다른 안녕
EXTD=YEAR: 2001
EXTT0=
EXTT1=
EXTT2=
EXTT3=
EXTT4=
EXTT5=
EXTT6=
EXTT7=
EXTT8=
EXTT9=
EXTT10=
EXTT11=
PLAYORDER=
